<svg xmlns="http://www.w3.org/2000/svg" width="900" height="360" viewBox="0 0 900 360">
  <rect x="30" y="150" width="160" height="50" rx="8" ry="8" fill="#ffffff" stroke="#111111" stroke-width="2"/>
  <text x="110" y="180" text-anchor="middle" font-family="Arial, sans-serif" font-size="16">User Prompt</text>

  <rect x="250" y="60" width="220" height="60" rx="8" ry="8" fill="#ffffff" stroke="#111111" stroke-width="2"/>
  <text x="360" y="90" text-anchor="middle" font-family="Arial, sans-serif" font-size="16">Ground: Factual</text>
  <text x="360" y="108" text-anchor="middle" font-family="Arial, sans-serif" font-size="12">truth • safety • verification</text>

  <rect x="250" y="220" width="220" height="60" rx="8" ry="8" fill="#ffffff" stroke="#111111" stroke-width="2"/>
  <text x="360" y="250" text-anchor="middle" font-family="Arial, sans-serif" font-size="16">Sky: Symbolic</text>
  <text x="360" y="268" text-anchor="middle" font-family="Arial, sans-serif" font-size="12">imagination • empathy</text>

  <rect x="520" y="135" width="220" height="90" rx="8" ry="8" fill="#ffffff" stroke="#111111" stroke-width="2"/>
  <text x="630" y="165" text-anchor="middle" font-family="Arial, sans-serif" font-size="16">Merge Layer</text>
  <text x="630" y="185" text-anchor="middle" font-family="Arial, sans-serif" font-size="12">accept • reject • dual-present</text>

  <rect x="520" y="260" width="220" height="50" rx="8" ry="8" fill="#f4f4f4" stroke="#dddddd" stroke-width="1"/>
  <text x="630" y="290" text-anchor="middle" font-family="Arial, sans-serif" font-size="12">Merge Log (audit trail)</text>

  <rect x="520" y="30" width="220" height="50" rx="8" ry="8" fill="#f4f4f4" stroke="#dddddd" stroke-width="1"/>
  <text x="630" y="60" text-anchor="middle" font-family="Arial, sans-serif" font-size="12">Final Output</text>

  <!-- lines + simple triangle arrowheads -->
  <line x1="190" y1="175" x2="250" y2="90" stroke="#111111" stroke-width="2"/>
  <polygon points="250,90 242,95 242,85" fill="#111111"/>

  <line x1="190" y1="175" x2="250" y2="250" stroke="#111111" stroke-width="2"/>
  <polygon points="250,250 242,255 242,245" fill="#111111"/>

  <line x1="470" y1="90" x2="520" y2="180" stroke="#111111" stroke-width="2"/>
  <polygon points="520,180 512,184 512,176" fill="#111111"/>

  <line x1="470" y1="250" x2="520" y2="180" stroke="#111111" stroke-width="2"/>
  <polygon points="520,180 512,184 512,176" fill="#111111"/>

  <line x1="630" y1="135" x2="630" y2="80" stroke="#111111" stroke-width="2"/>
  <polygon points="630,80 626,88 634,88" fill="#111111"/>

  <line x1="630" y1="225" x2="630" y2="260" stroke="#111111" stroke-width="2"/>
  <polygon points="630,260 626,252 634,252" fill="#111111"/>
</svg>
