<svg xmlns="http://www.w3.org/2000/svg" width="920" height="380" viewBox="0 0 920 380">
  <!-- Background frame -->
  <rect x="0" y="0" width="920" height="380" fill="#f9f9f9" stroke="#cccccc" stroke-width="2"/>

  <!-- Prompt -->
  <rect x="40" y="160" width="160" height="50" rx="8" ry="8" fill="#e8f0fe" stroke="#003366" stroke-width="2"/>
  <text x="120" y="190" text-anchor="middle" font-family="Arial, sans-serif" font-size="16" fill="#003366">User Prompt</text>

  <!-- Ground -->
  <rect x="260" y="70" width="220" height="60" rx="8" ry="8" fill="#fff8e1" stroke="#804000" stroke-width="2"/>
  <text x="370" y="100" text-anchor="middle" font-family="Arial, sans-serif" font-size="16" fill="#804000">Ground: Factual</text>
  <text x="370" y="118" text-anchor="middle" font-family="Arial, sans-serif" font-size="12" fill="#804000">truth • safety • verification</text>

  <!-- Sky -->
  <rect x="260" y="230" width="220" height="60" rx="8" ry="8" fill="#f3e5f5" stroke="#4a148c" stroke-width="2"/>
  <text x="370" y="260" text-anchor="middle" font-family="Arial, sans-serif" font-size="16" fill="#4a148c">Sky: Symbolic</text>
  <text x="370" y="278" text-anchor="middle" font-family="Arial, sans-serif" font-size="12" fill="#4a148c">imagination • empathy</text>

  <!-- Merge -->
  <rect x="530" y="145" width="220" height="90" rx="8" ry="8" fill="#e0f7fa" stroke="#006064" stroke-width="2"/>
  <text x="640" y="175" text-anchor="middle" font-family="Arial, sans-serif" font-size="16" fill="#006064">Merge Layer</text>
  <text x="640" y="195" text-anchor="middle" font-family="Arial, sans-serif" font-size="12" fill="#006064">accept • reject • dual-present</text>

  <!-- Merge Log -->
  <rect x="530" y="270" width="220" height="50" rx="8" ry="8" fill="#f5f5f5" stroke="#555555" stroke-width="1.5"/>
  <text x="640" y="300" text-anchor="middle" font-family="Arial, sans-serif" font-size="12" fill="#555555">Merge Log (audit trail)</text>

  <!-- Final Output -->
  <rect x="530" y="40" width="220" height="50" rx="8" ry="8" fill="#f5f5f5" stroke="#555555" stroke-width="1.5"/>
  <text x="640" y="70" text-anchor="middle" font-family="Arial, sans-serif" font-size="12" fill="#555555">Final Output</text>

  <!-- Lines with bold red -->
  <line x1="200" y1="185" x2="260" y2="100" stroke="#cc0000" stroke-width="3"/>
  <polygon points="260,100 252,105 252,95" fill="#cc0000"/>

  <line x1="200" y1="185" x2="260" y2="260" stroke="#cc0000" stroke-width="3"/>
  <polygon points="260,260 252,265 252,255" fill="#cc0000"/>

  <line x1="480" y1="100" x2="530" y2="190" stroke="#cc0000" stroke-width="3"/>
  <polygon points="530,190 522,194 522,186" fill="#cc0000"/>

  <line x1="480" y1="260" x2="530" y2="190" stroke="#cc0000" stroke-width="3"/>
  <polygon points="530,190 522,194 522,186" fill="#cc0000"/>

  <line x1="640" y1="145" x2="640" y2="90" stroke="#cc0000" stroke-width="3"/>
  <polygon points="640,90 636,98 644,98" fill="#cc0000"/>

  <line x1="640" y1="235" x2="640" y2="270" stroke="#cc0000" stroke-width="3"/>
  <polygon points="640,270 636,262 644,262" fill="#cc0000"/>
</svg>
